<svg width="1199" height="1199" viewBox="0 0 1199 1199" fill="none" xmlns="http://www.w3.org/2000/svg">
<g id="Frame">
<rect width="1199" height="1199" fill="white"/>
<g id="background">
<rect id="board" width="1199" height="1199" rx="50" fill="#F9EAE4"/>
<g id="indicator">
<g id="horizontal">
<path id="a" d="M170.406 1182C170.031 1181.25 169.727 1179.91 169.492 1177.99C166.469 1181.13 162.859 1182.7 158.664 1182.7C154.914 1182.7 151.832 1181.65 149.418 1179.54C147.027 1177.41 145.832 1174.71 145.832 1171.45C145.832 1167.49 147.332 1164.42 150.332 1162.24C153.355 1160.04 157.598 1158.94 163.059 1158.94H169.387V1155.95C169.387 1153.68 168.707 1151.87 167.348 1150.54C165.988 1149.18 163.984 1148.5 161.336 1148.5C159.016 1148.5 157.07 1149.08 155.5 1150.25C153.93 1151.43 153.145 1152.84 153.145 1154.51H146.605C146.605 1152.61 147.273 1150.78 148.609 1149.02C149.969 1147.24 151.797 1145.84 154.094 1144.8C156.414 1143.77 158.957 1143.26 161.723 1143.26C166.105 1143.26 169.539 1144.36 172.023 1146.56C174.508 1148.74 175.797 1151.75 175.891 1155.6V1173.11C175.891 1176.6 176.336 1179.38 177.227 1181.44V1182H170.406ZM159.613 1177.04C161.652 1177.04 163.586 1176.52 165.414 1175.46C167.242 1174.41 168.566 1173.04 169.387 1171.35V1163.54H164.289C156.32 1163.54 152.336 1165.88 152.336 1170.54C152.336 1172.58 153.016 1174.17 154.375 1175.32C155.734 1176.47 157.48 1177.04 159.613 1177.04Z" fill="black"/>
<path id="b" d="M328.125 1163.4C328.125 1169.21 326.789 1173.89 324.117 1177.43C321.445 1180.95 317.859 1182.7 313.359 1182.7C308.555 1182.7 304.84 1181 302.215 1177.61L301.898 1182H295.922V1128H302.426V1148.14C305.051 1144.89 308.672 1143.26 313.289 1143.26C317.906 1143.26 321.527 1145 324.152 1148.5C326.801 1151.99 328.125 1156.77 328.125 1162.84V1163.4ZM321.621 1162.66C321.621 1158.23 320.766 1154.81 319.055 1152.4C317.344 1149.98 314.883 1148.78 311.672 1148.78C307.383 1148.78 304.301 1150.77 302.426 1154.75V1171.21C304.418 1175.19 307.523 1177.18 311.742 1177.18C314.859 1177.18 317.285 1175.98 319.02 1173.56C320.754 1171.15 321.621 1167.52 321.621 1162.66Z" fill="black"/>
<path id="c" d="M462.18 1177.39C464.5 1177.39 466.527 1176.69 468.262 1175.29C469.996 1173.88 470.957 1172.12 471.145 1170.01H477.297C477.18 1172.19 476.43 1174.27 475.047 1176.23C473.664 1178.2 471.812 1179.77 469.492 1180.95C467.195 1182.12 464.758 1182.7 462.18 1182.7C457 1182.7 452.875 1180.98 449.805 1177.54C446.758 1174.07 445.234 1169.33 445.234 1163.33V1162.24C445.234 1158.54 445.914 1155.25 447.273 1152.36C448.633 1149.48 450.578 1147.24 453.109 1145.65C455.664 1144.05 458.676 1143.26 462.145 1143.26C466.41 1143.26 469.949 1144.54 472.762 1147.09C475.598 1149.64 477.109 1152.96 477.297 1157.04H471.145C470.957 1154.58 470.02 1152.56 468.332 1150.99C466.668 1149.4 464.605 1148.6 462.145 1148.6C458.84 1148.6 456.273 1149.8 454.445 1152.19C452.641 1154.55 451.738 1157.99 451.738 1162.49V1163.72C451.738 1168.1 452.641 1171.48 454.445 1173.84C456.25 1176.21 458.828 1177.39 462.18 1177.39Z" fill="black"/>
<path id="d" d="M579.34 1162.66C579.34 1156.83 580.723 1152.14 583.488 1148.6C586.254 1145.04 589.875 1143.26 594.352 1143.26C598.805 1143.26 602.332 1144.78 604.934 1147.83V1128H611.438V1182H605.461L605.145 1177.92C602.543 1181.11 598.922 1182.7 594.281 1182.7C589.875 1182.7 586.277 1180.9 583.488 1177.29C580.723 1173.68 579.34 1168.97 579.34 1163.16V1162.66ZM585.844 1163.4C585.844 1167.71 586.734 1171.09 588.516 1173.53C590.297 1175.96 592.758 1177.18 595.898 1177.18C600.023 1177.18 603.035 1175.33 604.934 1171.63V1154.16C602.988 1150.57 600 1148.78 595.969 1148.78C592.781 1148.78 590.297 1150.01 588.516 1152.47C586.734 1154.93 585.844 1158.57 585.844 1163.4Z" fill="black"/>
<path id="e" d="M728.707 1182.7C723.551 1182.7 719.355 1181.02 716.121 1177.64C712.887 1174.24 711.27 1169.71 711.27 1164.04V1162.84C711.27 1159.07 711.984 1155.7 713.414 1152.75C714.867 1149.77 716.883 1147.45 719.461 1145.79C722.062 1144.1 724.875 1143.26 727.898 1143.26C732.844 1143.26 736.688 1144.89 739.43 1148.14C742.172 1151.4 743.543 1156.07 743.543 1162.14V1164.84H717.773C717.867 1168.59 718.957 1171.63 721.043 1173.95C723.152 1176.25 725.824 1177.39 729.059 1177.39C731.355 1177.39 733.301 1176.93 734.895 1175.99C736.488 1175.05 737.883 1173.81 739.078 1172.26L743.051 1175.36C739.863 1180.25 735.082 1182.7 728.707 1182.7ZM727.898 1148.6C725.273 1148.6 723.07 1149.56 721.289 1151.48C719.508 1153.38 718.406 1156.05 717.984 1159.5H737.039V1159.01C736.852 1155.7 735.961 1153.15 734.367 1151.34C732.773 1149.52 730.617 1148.6 727.898 1148.6Z" fill="black"/>
<path id="f" d="M875.121 1182V1148.99H869.109V1143.96H875.121V1140.06C875.121 1135.98 876.211 1132.83 878.391 1130.6C880.57 1128.38 883.652 1127.26 887.637 1127.26C889.137 1127.26 890.625 1127.46 892.102 1127.86L891.75 1133.13C890.648 1132.92 889.477 1132.82 888.234 1132.82C886.125 1132.82 884.496 1133.44 883.348 1134.68C882.199 1135.9 881.625 1137.66 881.625 1139.95V1143.96H889.746V1148.99H881.625V1182H875.121Z" fill="black"/>
<path id="g" d="M1019.38 1162.66C1019.38 1156.73 1020.75 1152.02 1023.49 1148.53C1026.23 1145.02 1029.86 1143.26 1034.39 1143.26C1039.03 1143.26 1042.65 1144.9 1045.25 1148.18L1045.57 1143.96H1051.51V1181.09C1051.51 1186.01 1050.04 1189.89 1047.11 1192.72C1044.21 1195.56 1040.29 1196.98 1035.37 1196.98C1032.63 1196.98 1029.95 1196.39 1027.32 1195.22C1024.7 1194.05 1022.69 1192.44 1021.31 1190.4L1024.68 1186.5C1027.47 1189.95 1030.88 1191.67 1034.91 1191.67C1038.08 1191.67 1040.54 1190.78 1042.3 1189C1044.08 1187.21 1044.97 1184.71 1044.97 1181.47V1178.2C1042.37 1181.2 1038.82 1182.7 1034.32 1182.7C1029.86 1182.7 1026.25 1180.91 1023.49 1177.32C1020.75 1173.74 1019.38 1168.85 1019.38 1162.66ZM1025.91 1163.4C1025.91 1167.69 1026.79 1171.07 1028.55 1173.53C1030.31 1175.96 1032.77 1177.18 1035.93 1177.18C1040.04 1177.18 1043.05 1175.32 1044.97 1171.59V1154.23C1042.98 1150.59 1039.99 1148.78 1036 1148.78C1032.84 1148.78 1030.37 1150.01 1028.59 1152.47C1026.8 1154.93 1025.91 1158.57 1025.91 1163.4Z" fill="black"/>
</g>
<g id="vertical">
<path id="7" d="M64.5312 184.301L17 163.102V156.281L62.8438 177.41V149.707H68.1875V184.301H64.5312Z" fill="black"/>
<path id="6" d="M68.2227 325.777H62.7031V324.582C62.6094 319.52 61.1094 315.488 58.2031 312.488C55.2969 309.488 51.207 307.754 45.9336 307.285C49.0273 309.98 50.5742 313.66 50.5742 318.324C50.5742 322.777 49.0039 326.328 45.8633 328.977C42.7227 331.648 38.668 332.984 33.6992 332.984C28.4258 332.984 24.207 331.543 21.043 328.66C17.8789 325.801 16.2969 321.957 16.2969 317.129C16.2969 312.23 18.1719 308.258 21.9219 305.211C25.6953 302.164 30.5469 300.641 36.4766 300.641H38.9727C48.3945 300.641 55.5898 302.645 60.5586 306.652C65.5508 310.684 68.1055 316.672 68.2227 324.617V325.777ZM45.1602 317.234C45.1602 315.008 44.4922 312.957 43.1562 311.082C41.8203 309.207 40.1445 307.906 38.1289 307.18H35.7383C31.5195 307.18 28.1211 308.129 25.543 310.027C22.9648 311.926 21.6758 314.293 21.6758 317.129C21.6758 320.059 22.7539 322.355 24.9102 324.02C27.0664 325.707 29.8906 326.551 33.3828 326.551C36.8984 326.551 39.7344 325.695 41.8906 323.984C44.0703 322.297 45.1602 320.047 45.1602 317.234Z" fill="black"/>
<path id="5" d="M42.6641 454.242L68.1875 456.844V483.07H62.1758V462.363L48.2188 460.816C49.6953 463.324 50.4336 466.172 50.4336 469.359C50.4336 474.023 48.8867 477.727 45.793 480.469C42.7227 483.211 38.5625 484.582 33.3125 484.582C28.0391 484.582 23.8789 483.152 20.832 480.293C17.8086 477.457 16.2969 473.484 16.2969 468.375C16.2969 463.852 17.5508 460.16 20.0586 457.301C22.5664 454.441 26.0352 452.812 30.4648 452.414V458.566C27.5352 458.965 25.3203 460.008 23.8203 461.695C22.3438 463.383 21.6055 465.609 21.6055 468.375C21.6055 471.398 22.6367 473.766 24.6992 475.477C26.7617 477.211 29.6094 478.078 33.2422 478.078C36.6641 478.078 39.4062 477.141 41.4687 475.266C43.5547 473.414 44.5977 470.941 44.5977 467.848C44.5977 465.012 43.9766 462.785 42.7344 461.168L41.3281 459.445L42.6641 454.242Z" fill="black"/>
<path id="4" d="M34.1914 612.711V619.812H28.8828V612.711H17V606.172H28.8828V582.863H32.7148L68.1875 605.785V612.711H34.1914ZM34.1914 590.246V606.172H59.293L57.8867 605.398L34.1914 590.246Z" fill="black"/>
<path id="3" d="M45.7578 726.711V731.598C45.8047 734.668 46.6133 737.082 48.1836 738.84C49.7539 740.598 51.875 741.477 54.5469 741.477C60.5469 741.477 63.5469 738.488 63.5469 732.512C63.5469 729.699 62.7383 727.449 61.1211 725.762C59.5273 724.098 57.4062 723.266 54.7578 723.266V716.762C58.8125 716.762 62.1758 718.238 64.8477 721.191C67.543 724.168 68.8906 727.941 68.8906 732.512C68.8906 737.34 67.6133 741.125 65.0586 743.867C62.5039 746.609 58.9531 747.98 54.4062 747.98C52.1797 747.98 50.0234 747.254 47.9375 745.801C45.8516 744.371 44.293 742.414 43.2617 739.93C42.3711 742.742 40.8945 744.91 38.832 746.434C36.7695 747.98 34.25 748.754 31.2734 748.754C26.6797 748.754 23.0352 747.254 20.3398 744.254C17.6445 741.254 16.2969 737.352 16.2969 732.547C16.2969 727.742 17.5977 723.828 20.1992 720.805C22.8008 717.805 26.2344 716.305 30.5 716.305V722.844C27.8047 722.844 25.6484 723.723 24.0312 725.48C22.4141 727.238 21.6055 729.594 21.6055 732.547C21.6055 735.688 22.4258 738.09 24.0664 739.754C25.707 741.418 28.0625 742.25 31.1328 742.25C34.1094 742.25 36.3945 741.336 37.9883 739.508C39.582 737.68 40.4023 735.043 40.4492 731.598V726.711H45.7578Z" fill="black"/>
<path id="2" d="M17 909.793V876.254H21.6758L41.3633 893.973C44.3398 896.598 46.7539 898.402 48.6055 899.387C50.4805 900.395 52.4141 900.898 54.4062 900.898C57.0781 900.898 59.2695 900.09 60.9805 898.473C62.6914 896.855 63.5469 894.699 63.5469 892.004C63.5469 888.77 62.6211 886.25 60.7695 884.445C58.9414 882.664 56.3867 881.773 53.1055 881.773V875.27C57.8164 875.27 61.625 876.781 64.5312 879.805C67.4375 882.852 68.8906 886.918 68.8906 892.004C68.8906 896.762 67.6367 900.523 65.1289 903.289C62.6445 906.055 59.3281 907.438 55.1797 907.438C50.1406 907.438 44.1406 904.227 37.1797 897.805L22.3086 884.094L22.3086 909.793H17Z" fill="black"/>
<path id="1" d="M17 1046.63V1040.09H60.3477L55.5312 1026.98H61.4375L68.4336 1045.61V1046.63H17Z" fill="black"/>
</g>
</g>
</g>
<g id="skeleton">
<g id="lines">
<line id="left" x1="163" y1="599" x2="465" y2="599" stroke="#F75C09" stroke-width="20"/>
<line id="right" x1="732" y1="599" x2="1034" y2="599" stroke="#F75C09" stroke-width="20"/>
<line id="up" x1="599" y1="465" x2="599" y2="163" stroke="#F75C09" stroke-width="20"/>
<line id="down" x1="599" y1="1034" x2="599" y2="732" stroke="#F75C09" stroke-width="20"/>
</g>
<rect id="outerSquare" x="165" y="166" width="867" height="866" stroke="#F75C09" stroke-width="20"/>
<rect id="middleSquare" x="315" y="316" width="567" height="565" stroke="#F9AFC0" stroke-width="20"/>
<rect id="innerSquare" x="466" y="466" width="266" height="266" stroke="#F75C09" stroke-width="20"/>
</g>
<g id="allCircles">
<g id="outer">
<circle id="d1" cx="599" cy="1032" r="30" fill="#F9AFC0"/>
<circle id="d7" cx="599" cy="165" r="30" fill="#F9AFC0"/>
<circle id="g1" cx="1032" cy="1032" r="30" fill="#F9AFC0"/>
<circle id="g7" cx="1032" cy="165" r="30" fill="#F9AFC0"/>
<circle id="g4" cx="1033" cy="599" r="30" fill="#F9AFC0"/>
<circle id="a1" cx="165" cy="1032" r="30" fill="#F9AFC0"/>
<circle id="a7" cx="165" cy="165" r="30" fill="#F9AFC0"/>
<circle id="a4" cx="166" cy="599" r="30" fill="#F9AFC0"/>
</g>
<g id="middle">
<circle id="f2" cx="883" cy="883" r="30" fill="#F75C09"/>
<circle id="d2" cx="599" cy="883" r="30" fill="#F75C09"/>
<circle id="b2" cx="315" cy="883" r="30" fill="#F75C09"/>
<circle id="b4" cx="315" cy="599" r="30" fill="#F75C09"/>
<circle id="b6" cx="315" cy="315" r="30" fill="#F75C09"/>
<circle id="d6" cx="599" cy="315" r="30" fill="#F75C09"/>
<circle id="f6" cx="883" cy="315" r="30" fill="#F75C09"/>
<circle id="f4" cx="883" cy="600" r="30" fill="#F75C09"/>
</g>
<g id="inner">
<circle id="c5" cx="465" cy="465" r="30" fill="#F9AFC0"/>
<circle id="e5" cx="733" cy="465" r="30" fill="#F9AFC0"/>
<circle id="d5" cx="599" cy="464" r="30" fill="#F9AFC0"/>
<circle id="c4" cx="465" cy="599" r="30" fill="#F9AFC0"/>
<circle id="e4" cx="733" cy="599" r="30" fill="#F9AFC0"/>
<circle id="c3" cx="465" cy="735" r="30" fill="#F9AFC0"/>
<circle id="e3" cx="733" cy="735" r="30" fill="#F9AFC0"/>
<circle id="d3" cx="599" cy="734" r="30" fill="#F9AFC0"/>
</g>
</g>
</g>
</svg>
